<?xml version="1.0" encoding="utf-8"?>
<!-- Generator: Adobe Illustrator 17.0.0, SVG Export Plug-In . SVG Version: 6.00 Build 0)  -->
<!DOCTYPE svg PUBLIC "-//W3C//DTD SVG 1.1//EN" "http://www.w3.org/Graphics/SVG/1.1/DTD/svg11.dtd">
<svg version="1.1" id="Layer_1" xmlns="http://www.w3.org/2000/svg" xmlns:xlink="http://www.w3.org/1999/xlink" x="0px" y="0px"
	 width="48px" height="48px" viewBox="0 0 48 48" enable-background="new 0 0 48 48" xml:space="preserve">
<path d="M38,6H10c-2.2,0-4,1.8-4,4v28c0,2.2,1.8,4,4,4h28c2.2,0,4-1.8,4-4V10C42,7.8,40.2,6,38,6z M29.974,16.78
	c0,0.248-0.201,0.45-0.45,0.45l-1.931,0.001c-1.33,0-1.574,0.519-1.574,1.54v2.126h3.37c0.12,0,0.234,0.047,0.319,0.131
	c0.084,0.085,0.133,0.2,0.133,0.319l-0.002,3.634c0,0.248-0.201,0.45-0.45,0.45h-3.369v9.168c0,0.248-0.202,0.45-0.451,0.45h-3.758
	c-0.249,0-0.451-0.202-0.451-0.45v-9.168h-2.882c-0.248,0-0.45-0.202-0.45-0.45v-3.634c0-0.249,0.202-0.45,0.45-0.45h2.882v-2.508
	c0-3.304,2.081-5.439,5.301-5.439l2.866,0.004c0.248,0.001,0.449,0.202,0.449,0.451V16.78z"/>
</svg>
