<?xml version="1.0" encoding="utf-8"?>
<!-- Generator: Adobe Illustrator 17.0.0, SVG Export Plug-In . SVG Version: 6.00 Build 0)  -->
<!DOCTYPE svg PUBLIC "-//W3C//DTD SVG 1.1//EN" "http://www.w3.org/Graphics/SVG/1.1/DTD/svg11.dtd">
<svg version="1.1" id="Layer_1" xmlns="http://www.w3.org/2000/svg" xmlns:xlink="http://www.w3.org/1999/xlink" x="0px" y="0px"
	 width="48px" height="48px" viewBox="0 0 48 48" enable-background="new 0 0 48 48" xml:space="preserve">
<path d="M19.37,27c-0.135,0-0.271,0.005-0.407,0.014c-1.159,0.085-2.224,0.518-3,1.221c-0.765,0.693-1.156,1.564-1.099,2.452
	c0.116,1.849,2.104,2.936,4.519,2.76c2.377-0.173,3.96-1.54,3.845-3.391C23.118,28.314,21.604,27,19.37,27z"/>
<path d="M21.648,16.927c-0.63-2.212-1.645-2.868-3.226-2.868c-0.172,0-0.342,0.024-0.506,0.071
	c-0.685,0.193-1.228,0.765-1.531,1.612c-0.308,0.861-0.329,1.757-0.062,2.781c0.481,1.824,1.778,3.149,3.087,3.149
	c0.171,0,0.342-0.024,0.505-0.071C21.344,21.199,22.242,19.016,21.648,16.927z"/>
<path d="M38,6H10c-2.2,0-4,1.8-4,4v28c0,2.2,1.8,4,4,4h28c2.2,0,4-1.8,4-4V10C42,7.8,40.2,6,38,6z M22.559,34.737
	c-1.571,0.765-3.262,0.846-3.917,0.846c-0.123,0-0.196-0.002-0.208-0.002c0,0-0.046,0.001-0.126,0.001
	c-1.021,0-6.103-0.235-6.103-4.864c0-4.549,5.535-4.904,7.232-4.905l0.043,0.001c-0.979-1.307-0.776-2.627-0.776-2.627
	c-0.088,0.005-0.211,0.012-0.366,0.012c-0.639,0-1.87-0.102-2.93-0.785c-1.295-0.834-1.951-2.253-1.951-4.218
	c0-5.55,6.059-5.775,6.121-5.776h6.053v0.131c0,0.679-1.215,0.807-2.046,0.92c-0.279,0.039-0.843,0.098-1.004,0.18
	c1.532,0.818,1.781,2.104,1.781,4.023c0,2.181-0.854,3.335-1.761,4.146c-0.56,0.501-1.004,0.897-1.004,1.424
	c0,0.517,0.607,1.049,1.309,1.665c1.15,1.01,2.725,2.393,2.725,4.716C25.631,32.027,24.596,33.748,22.559,34.737z M35.794,23.977
	h-3.949v3.949h-2.501v-3.949h-3.949v-2.501h3.949v-3.949h2.501v3.949h3.949V23.977z"/>
</svg>
